<svg width="960" height="760" viewBox="0 0 960 760" fill="none" xmlns="http://www.w3.org/2000/svg">
  <rect width="960" height="760" rx="56" fill="#0A1020"/>
  <rect x="36" y="36" width="888" height="688" rx="40" fill="url(#paint0_linear)"/>
  <g opacity="0.9">
    <circle cx="148" cy="138" r="54" fill="#FF6B57"/>
    <circle cx="220" cy="196" r="16" fill="#F5C86B"/>
    <path d="M160 278C160 237.131 193.131 204 234 204H370C410.869 204 444 237.131 444 278V278C444 318.869 410.869 352 370 352H234C193.131 352 160 318.869 160 278V278Z" fill="#111A31"/>
    <rect x="190" y="234" width="188" height="16" rx="8" fill="#F6F8FF"/>
    <rect x="190" y="266" width="120" height="10" rx="5" fill="#8A95B3"/>
    <rect x="190" y="292" width="148" height="10" rx="5" fill="#8A95B3"/>
    <rect x="490" y="118" width="306" height="424" rx="34" fill="#111A31"/>
    <rect x="520" y="150" width="246" height="134" rx="24" fill="url(#paint1_linear)"/>
    <rect x="520" y="308" width="246" height="32" rx="16" fill="#E7ECFF"/>
    <rect x="520" y="356" width="210" height="14" rx="7" fill="#8A95B3"/>
    <rect x="520" y="388" width="162" height="14" rx="7" fill="#8A95B3"/>
    <rect x="520" y="430" width="128" height="68" rx="20" fill="#FF6B57"/>
    <rect x="664" y="430" width="102" height="68" rx="20" fill="#1B2948"/>
    <rect x="148" y="402" width="252" height="220" rx="32" fill="#131F39"/>
    <rect x="180" y="442" width="188" height="18" rx="9" fill="#E7ECFF"/>
    <rect x="180" y="478" width="152" height="12" rx="6" fill="#8A95B3"/>
    <rect x="180" y="524" width="188" height="74" rx="22" fill="url(#paint2_linear)"/>
    <rect x="430" y="572" width="364" height="52" rx="26" fill="#121B32"/>
    <rect x="456" y="591" width="154" height="14" rx="7" fill="#F6F8FF"/>
    <rect x="628" y="591" width="138" height="14" rx="7" fill="#3AD5B9"/>
  </g>
  <defs>
    <linearGradient id="paint0_linear" x1="82" y1="86" x2="840" y2="682" gradientUnits="userSpaceOnUse">
      <stop stop-color="#111A31"/>
      <stop offset="1" stop-color="#0D152A"/>
    </linearGradient>
    <linearGradient id="paint1_linear" x1="520" y1="150" x2="766" y2="284" gradientUnits="userSpaceOnUse">
      <stop stop-color="#FF6B57"/>
      <stop offset="1" stop-color="#F5C86B"/>
    </linearGradient>
    <linearGradient id="paint2_linear" x1="180" y1="524" x2="368" y2="598" gradientUnits="userSpaceOnUse">
      <stop stop-color="#3AD5B9"/>
      <stop offset="1" stop-color="#1D6A75"/>
    </linearGradient>
  </defs>
</svg>
