<svg width="960" height="720" viewBox="0 0 960 720" fill="none" xmlns="http://www.w3.org/2000/svg">
  <rect width="960" height="720" rx="48" fill="#0B1020"/>
  <rect x="44" y="44" width="872" height="632" rx="34" fill="#10192F"/>
  <rect x="126" y="96" width="304" height="528" rx="38" fill="#162341"/>
  <rect x="156" y="144" width="244" height="144" rx="28" fill="url(#paint0_linear)"/>
  <rect x="156" y="318" width="244" height="18" rx="9" fill="#F7F8FF"/>
  <rect x="156" y="350" width="188" height="12" rx="6" fill="#97A3C0"/>
  <rect x="156" y="396" width="244" height="170" rx="28" fill="#0E162A"/>
  <rect x="492" y="116" width="304" height="210" rx="34" fill="#1A2544"/>
  <rect x="522" y="148" width="244" height="104" rx="24" fill="url(#paint1_linear)"/>
  <rect x="492" y="356" width="304" height="268" rx="34" fill="#17233F"/>
  <rect x="522" y="392" width="244" height="20" rx="10" fill="#F7F8FF"/>
  <rect x="522" y="428" width="192" height="12" rx="6" fill="#97A3C0"/>
  <rect x="522" y="470" width="112" height="96" rx="22" fill="#FF6B57"/>
  <rect x="654" y="470" width="112" height="96" rx="22" fill="#3AD5B9"/>
  <circle cx="824" cy="148" r="34" fill="#F5C86B"/>
  <defs>
    <linearGradient id="paint0_linear" x1="156" y1="144" x2="400" y2="288" gradientUnits="userSpaceOnUse">
      <stop stop-color="#FF6B57"/>
      <stop offset="1" stop-color="#F5C86B"/>
    </linearGradient>
    <linearGradient id="paint1_linear" x1="522" y1="148" x2="766" y2="252" gradientUnits="userSpaceOnUse">
      <stop stop-color="#3AD5B9"/>
      <stop offset="1" stop-color="#1D6A75"/>
    </linearGradient>
  </defs>
</svg>
