<svg width="960" height="720" viewBox="0 0 960 720" fill="none" xmlns="http://www.w3.org/2000/svg">
  <rect width="960" height="720" rx="48" fill="#0B1020"/>
  <rect x="42" y="42" width="876" height="636" rx="34" fill="#121A30"/>
  <circle cx="178" cy="152" r="56" fill="#FF6B57"/>
  <rect x="292" y="120" width="372" height="88" rx="28" fill="#1A2544"/>
  <rect x="326" y="146" width="182" height="16" rx="8" fill="#F7F8FF"/>
  <rect x="326" y="174" width="126" height="12" rx="6" fill="#9AA6C3"/>
  <rect x="98" y="274" width="336" height="318" rx="30" fill="url(#paint0_linear)"/>
  <rect x="132" y="316" width="268" height="22" rx="11" fill="#F7F8FF"/>
  <rect x="132" y="354" width="168" height="12" rx="6" fill="#FFE8E1"/>
  <rect x="132" y="394" width="204" height="84" rx="26" fill="#10192F"/>
  <rect x="462" y="266" width="398" height="170" rx="32" fill="#192544"/>
  <rect x="494" y="302" width="334" height="18" rx="9" fill="#F7F8FF"/>
  <rect x="494" y="336" width="190" height="12" rx="6" fill="#9AA6C3"/>
  <rect x="494" y="370" width="226" height="12" rx="6" fill="#9AA6C3"/>
  <rect x="462" y="468" width="398" height="124" rx="32" fill="#0E162A"/>
  <rect x="494" y="500" width="146" height="52" rx="16" fill="#3AD5B9"/>
  <rect x="658" y="500" width="170" height="52" rx="16" fill="#1A2544"/>
  <defs>
    <linearGradient id="paint0_linear" x1="98" y1="274" x2="434" y2="592" gradientUnits="userSpaceOnUse">
      <stop stop-color="#FF6B57"/>
      <stop offset="1" stop-color="#F5C86B"/>
    </linearGradient>
  </defs>
</svg>
