<svg width="960" height="720" viewBox="0 0 960 720" fill="none" xmlns="http://www.w3.org/2000/svg">
  <rect width="960" height="720" rx="48" fill="#09101E"/>
  <rect x="52" y="52" width="856" height="616" rx="34" fill="#0F182D"/>
  <rect x="146" y="134" width="308" height="416" rx="30" transform="rotate(-8 146 134)" fill="#162340"/>
  <rect x="186" y="186" width="236" height="138" rx="22" transform="rotate(-8 186 186)" fill="url(#paint0_linear)"/>
  <rect x="198" y="348" width="190" height="16" rx="8" transform="rotate(-8 198 348)" fill="#F7F8FF"/>
  <rect x="204" y="380" width="150" height="12" rx="6" transform="rotate(-8 204 380)" fill="#97A3C0"/>
  <rect x="520" y="110" width="264" height="370" rx="30" fill="#192544"/>
  <rect x="550" y="146" width="204" height="126" rx="24" fill="url(#paint1_linear)"/>
  <rect x="550" y="302" width="204" height="18" rx="9" fill="#F7F8FF"/>
  <rect x="550" y="336" width="160" height="12" rx="6" fill="#97A3C0"/>
  <rect x="452" y="448" width="348" height="156" rx="30" fill="#0D162B"/>
  <rect x="484" y="484" width="284" height="18" rx="9" fill="#F7F8FF"/>
  <rect x="484" y="520" width="210" height="12" rx="6" fill="#97A3C0"/>
  <rect x="484" y="552" width="130" height="24" rx="12" fill="#3AD5B9"/>
  <defs>
    <linearGradient id="paint0_linear" x1="186" y1="186" x2="422" y2="324" gradientUnits="userSpaceOnUse">
      <stop stop-color="#FF6B57"/>
      <stop offset="1" stop-color="#F5C86B"/>
    </linearGradient>
    <linearGradient id="paint1_linear" x1="550" y1="146" x2="754" y2="272" gradientUnits="userSpaceOnUse">
      <stop stop-color="#3AD5B9"/>
      <stop offset="1" stop-color="#1D6A75"/>
    </linearGradient>
  </defs>
</svg>
